%TF.GenerationSoftware,KiCad,Pcbnew,9.0.7*%
%TF.CreationDate,2026-01-29T18:01:25+02:00*%
%TF.ProjectId,Fab_Lab_Again,4661625f-4c61-4625-9f41-6761696e2e6b,rev?*%
%TF.SameCoordinates,Original*%
%TF.FileFunction,Copper,L1,Top*%
%TF.FilePolarity,Positive*%
%FSLAX46Y46*%
G04 Gerber Fmt 4.6, Leading zero omitted, Abs format (unit mm)*
G04 Created by KiCad (PCBNEW 9.0.7) date 2026-01-29 18:01:25*
%MOMM*%
%LPD*%
G01*
G04 APERTURE LIST*
G04 Aperture macros list*
%AMRoundRect*
0 Rectangle with rounded corners*
0 $1 Rounding radius*
0 $2 $3 $4 $5 $6 $7 $8 $9 X,Y pos of 4 corners*
0 Add a 4 corners polygon primitive as box body*
4,1,4,$2,$3,$4,$5,$6,$7,$8,$9,$2,$3,0*
0 Add four circle primitives for the rounded corners*
1,1,$1+$1,$2,$3*
1,1,$1+$1,$4,$5*
1,1,$1+$1,$6,$7*
1,1,$1+$1,$8,$9*
0 Add four rect primitives between the rounded corners*
20,1,$1+$1,$2,$3,$4,$5,0*
20,1,$1+$1,$4,$5,$6,$7,0*
20,1,$1+$1,$6,$7,$8,$9,0*
20,1,$1+$1,$8,$9,$2,$3,0*%
G04 Aperture macros list end*
%TA.AperFunction,ComponentPad*%
%ADD10C,1.700000*%
%TD*%
%TA.AperFunction,ComponentPad*%
%ADD11C,1.600000*%
%TD*%
%TA.AperFunction,ComponentPad*%
%ADD12RoundRect,0.250000X-0.550000X-0.550000X0.550000X-0.550000X0.550000X0.550000X-0.550000X0.550000X0*%
%TD*%
%TA.AperFunction,ComponentPad*%
%ADD13C,2.400000*%
%TD*%
%TA.AperFunction,ComponentPad*%
%ADD14RoundRect,0.250001X0.949999X-0.949999X0.949999X0.949999X-0.949999X0.949999X-0.949999X-0.949999X0*%
%TD*%
%TA.AperFunction,ComponentPad*%
%ADD15R,1.350000X1.350000*%
%TD*%
%TA.AperFunction,ComponentPad*%
%ADD16C,1.350000*%
%TD*%
%TA.AperFunction,ComponentPad*%
%ADD17R,1.800000X1.800000*%
%TD*%
%TA.AperFunction,ComponentPad*%
%ADD18C,1.800000*%
%TD*%
%TA.AperFunction,Conductor*%
%ADD19C,0.500000*%
%TD*%
G04 APERTURE END LIST*
D10*
%TO.P,SW1,2,2*%
%TO.N,GND*%
X50250000Y54750000D03*
X43750000Y54750000D03*
%TO.P,SW1,1,1*%
%TO.N,Net-(U1-PB2)*%
X50250000Y59250000D03*
X43750000Y59250000D03*
%TD*%
D11*
%TO.P,U1,8,VCC*%
%TO.N,5V*%
X42315000Y44810000D03*
%TO.P,U1,7,PB2*%
%TO.N,Net-(U1-PB2)*%
X42315000Y42270000D03*
%TO.P,U1,6,PB1*%
%TO.N,Net-(J1-SCK)*%
X42315000Y39730000D03*
%TO.P,U1,5,AREF/PB0*%
%TO.N,Net-(D1-A)*%
X42315000Y37190000D03*
%TO.P,U1,4,GND*%
%TO.N,GND*%
X34695000Y37190000D03*
%TO.P,U1,3,XTAL2/PB4*%
%TO.N,Net-(J1-MISO)*%
X34695000Y39730000D03*
%TO.P,U1,2,XTAL1/PB3*%
%TO.N,Net-(J1-MOSI)*%
X34695000Y42270000D03*
D12*
%TO.P,U1,1,~{RESET}/PB5*%
%TO.N,Net-(J1-~{RST})*%
X34695000Y44810000D03*
%TD*%
D13*
%TO.P,C1,2*%
%TO.N,GND*%
X64500000Y62000000D03*
D14*
%TO.P,C1,1*%
%TO.N,5V*%
X64500000Y27000000D03*
%TD*%
D11*
%TO.P,R2,1*%
%TO.N,Net-(D1-K)*%
X42810000Y18000000D03*
%TO.P,R2,2*%
%TO.N,GND*%
X35190000Y18000000D03*
%TD*%
D15*
%TO.P,J1,1,MISO*%
%TO.N,Net-(J1-MISO)*%
X40000000Y24000000D03*
D16*
%TO.P,J1,2,VCC*%
%TO.N,5V*%
X38000000Y24000000D03*
%TO.P,J1,3,SCK*%
%TO.N,Net-(J1-SCK)*%
X40000000Y26000000D03*
%TO.P,J1,4,MOSI*%
%TO.N,Net-(J1-MOSI)*%
X38000000Y26000000D03*
%TO.P,J1,5,~{RST}*%
%TO.N,Net-(J1-~{RST})*%
X40000000Y28000000D03*
%TO.P,J1,6,GND*%
%TO.N,GND*%
X38000000Y28000000D03*
%TD*%
D17*
%TO.P,D1,1,K*%
%TO.N,Net-(D1-K)*%
X48500000Y30500000D03*
D18*
%TO.P,D1,2,A*%
%TO.N,Net-(D1-A)*%
X51040000Y30500000D03*
%TD*%
D19*
%TO.N,GND*%
X61250000Y54750000D02*
X50250000Y54750000D01*
X64500000Y58000000D02*
X61250000Y54750000D01*
X64500000Y62000000D02*
X64500000Y58000000D01*
%TO.N,5V*%
X64500000Y21750000D02*
X64500000Y27000000D01*
X61250000Y18500000D02*
X64500000Y21750000D01*
X57500000Y18500000D02*
X61250000Y18500000D01*
X38000000Y12500000D02*
X44750000Y5750000D01*
X38000000Y14000000D02*
X38000000Y12500000D01*
X44750000Y5750000D02*
X57500000Y18500000D01*
%TO.N,Net-(J1-SCK)*%
X40574000Y25426000D02*
X40000000Y26000000D01*
X41426000Y25426000D02*
X40574000Y25426000D01*
X41426000Y22574000D02*
X41426000Y25426000D01*
X39500000Y22574000D02*
X41426000Y22574000D01*
X39500000Y12415628D02*
X39500000Y22574000D01*
X41957814Y9957814D02*
X39500000Y12415628D01*
X45308277Y13308277D02*
X41957814Y9957814D01*
X54000000Y21500000D02*
X54500000Y21500000D01*
X54000000Y35000000D02*
X54000000Y21500000D01*
X54500000Y21500000D02*
X46308277Y13308277D01*
X53500000Y35500000D02*
X54000000Y35000000D01*
X53500000Y39000000D02*
X53500000Y35500000D01*
X46308277Y13308277D02*
X45308277Y13308277D01*
X52770000Y39730000D02*
X53500000Y39000000D01*
X42315000Y39730000D02*
X52770000Y39730000D01*
%TO.N,Net-(D1-K)*%
X48500000Y23690000D02*
X42810000Y18000000D01*
X48500000Y30500000D02*
X48500000Y23690000D01*
%TO.N,Net-(D1-A)*%
X51040000Y30920000D02*
X51040000Y30500000D01*
X51000000Y30960000D02*
X51040000Y30920000D01*
X51000000Y37000000D02*
X51000000Y30960000D01*
X50810000Y37190000D02*
X51000000Y37000000D01*
X42315000Y37190000D02*
X50810000Y37190000D01*
%TO.N,5V*%
X30000000Y17500000D02*
X33500000Y14000000D01*
X30000000Y52500000D02*
X30000000Y17500000D01*
X34500000Y57000000D02*
X30000000Y52500000D01*
X40500000Y57000000D02*
X34500000Y57000000D01*
X40500000Y60500000D02*
X40500000Y57000000D01*
X46000000Y63000000D02*
X43000000Y63000000D01*
X47500000Y61500000D02*
X46000000Y63000000D01*
X47500000Y50000000D02*
X47500000Y61500000D01*
X41000000Y49500000D02*
X41500000Y50000000D01*
X42315000Y48185000D02*
X41000000Y49500000D01*
X41500000Y50000000D02*
X47500000Y50000000D01*
X43000000Y63000000D02*
X40500000Y60500000D01*
X42315000Y44810000D02*
X42315000Y48185000D01*
X33500000Y14000000D02*
X38000000Y14000000D01*
%TO.N,GND*%
X34000000Y54000000D02*
X35000000Y54000000D01*
X31500000Y51500000D02*
X34000000Y54000000D01*
X35000000Y54000000D02*
X35750000Y54750000D01*
X35750000Y54750000D02*
X43750000Y54750000D01*
X31500000Y18000000D02*
X31500000Y51500000D01*
X35190000Y18000000D02*
X31500000Y18000000D01*
%TO.N,Net-(U1-PB2)*%
X63000000Y42000000D02*
X62730000Y42270000D01*
X74500000Y53500000D02*
X63000000Y42000000D01*
X74500000Y65000000D02*
X74500000Y53500000D01*
X50250000Y64750000D02*
X50000000Y65000000D01*
X50000000Y65000000D02*
X74500000Y65000000D01*
X50250000Y59250000D02*
X50250000Y64750000D01*
X62730000Y42270000D02*
X42315000Y42270000D01*
X46000000Y57000000D02*
X43750000Y59250000D01*
X36000000Y52000000D02*
X46000000Y52000000D01*
X33500000Y49500000D02*
X36000000Y52000000D01*
X37500000Y46000000D02*
X34000000Y49500000D01*
X37500000Y42000000D02*
X37500000Y46000000D01*
X37770000Y42270000D02*
X37500000Y42000000D01*
X42315000Y42270000D02*
X37770000Y42270000D01*
X34000000Y49500000D02*
X33500000Y49500000D01*
X46000000Y52000000D02*
X46000000Y57000000D01*
%TO.N,Net-(J1-~{RST})*%
X39000000Y39000000D02*
X40000000Y38000000D01*
X40000000Y38000000D02*
X40000000Y28000000D01*
X36500000Y39000000D02*
X39000000Y39000000D01*
X36500000Y44500000D02*
X36500000Y39000000D01*
X36190000Y44810000D02*
X36500000Y44500000D01*
X34695000Y44810000D02*
X36190000Y44810000D01*
X34695000Y44805000D02*
X34695000Y44810000D01*
%TO.N,5V*%
X38000000Y24000000D02*
X38000000Y14000000D01*
%TO.N,Net-(J1-MOSI)*%
X32500000Y42500000D02*
X32730000Y42270000D01*
X32730000Y42270000D02*
X34695000Y42270000D01*
X37983331Y26000000D02*
X32500000Y31483331D01*
X32500000Y31483331D02*
X32500000Y42500000D01*
X38000000Y26000000D02*
X37983331Y26000000D01*
%TO.N,GND*%
X39000000Y37000000D02*
X39000000Y31000000D01*
X38810000Y37190000D02*
X39000000Y37000000D01*
X34695000Y37190000D02*
X38810000Y37190000D01*
X38000000Y30000000D02*
X39000000Y31000000D01*
X38000000Y28000000D02*
X38000000Y30000000D01*
%TD*%
M02*
